<?xml version="1.0" encoding="utf-8"?>
<!-- Generator: Adobe Illustrator 18.0.0, SVG Export Plug-In . SVG Version: 6.00 Build 0)  -->
<!DOCTYPE svg PUBLIC "-//W3C//DTD SVG 1.1//EN" "http://www.w3.org/Graphics/SVG/1.1/DTD/svg11.dtd">
<svg version="1.1" id="ALARM_1_" xmlns="http://www.w3.org/2000/svg" xmlns:xlink="http://www.w3.org/1999/xlink" x="0px" y="0px"
	 viewBox="0 0 32 31" enable-background="new 0 0 32 31" xml:space="preserve">
<g id="ALARM">
	<g>
		<path fill-rule="evenodd" clip-rule="evenodd" fill="#95E1D3" d="M22,14.5h-4.5V8c0-0.8-0.7-1.5-1.5-1.5S14.5,7.2,14.5,8v8
			c0,0.8,0.7,1.5,1.5,1.5h6c0.8,0,1.5-0.7,1.5-1.5C23.5,15.2,22.8,14.5,22,14.5z M9.7,1.3C8.7,0.5,7.4,0,6,0C2.7,0,0,2.7,0,6
			c0,1.4,0.5,2.7,1.3,3.7C2.9,5.9,5.9,2.9,9.7,1.3z M26.1,0c-1.4,0-2.6,0.5-3.6,1.3c3.7,1.6,6.7,4.5,8.2,8.2c0.8-1,1.3-2.3,1.3-3.6
			C32,2.6,29.4,0,26.1,0z M16,1.5C8,1.5,1.5,8,1.5,16c0,3.8,1.5,7.3,4,9.9l-2,2C3.2,28.2,3,28.6,3,29c0,0.8,0.7,1.5,1.5,1.5
			c0.4,0,0.8-0.2,1.1-0.4l2.2-2.2c2.3,1.6,5.2,2.6,8.3,2.6c3.1,0,5.9-1,8.3-2.6l2.2,2.2c0.3,0.3,0.6,0.4,1,0.4
			c0.8,0,1.5-0.7,1.5-1.5c0-0.4-0.2-0.8-0.4-1l-2-2c2.5-2.6,4-6.1,4-9.9C30.5,8,24,1.5,16,1.5z M16,27.5C9.6,27.5,4.5,22.4,4.5,16
			C4.5,9.6,9.6,4.5,16,4.5c6.4,0,11.5,5.1,11.5,11.5C27.5,22.4,22.4,27.5,16,27.5z"/>
	</g>
</g>
</svg>
