<?xml version="1.0" encoding="utf-8"?>
<!-- Generator: Adobe Illustrator 18.0.0, SVG Export Plug-In . SVG Version: 6.00 Build 0)  -->
<!DOCTYPE svg PUBLIC "-//W3C//DTD SVG 1.1//EN" "http://www.w3.org/Graphics/SVG/1.1/DTD/svg11.dtd">
<svg version="1.1" id="ARROW__x2F__DOWN_copy_1_" xmlns="http://www.w3.org/2000/svg" xmlns:xlink="http://www.w3.org/1999/xlink"
	 x="0px" y="0px" viewBox="0 0 12 22" enable-background="new 0 0 12 22" xml:space="preserve">
<g id="ARROW__x2F__DOWN_copy">
	<g>
		<path fill-rule="evenodd" clip-rule="evenodd" fill="#CCCCCC" d="M11.5,9.9L11.5,9.9l-9-9v0c-0.3-0.3-0.6-0.4-1-0.4
			C0.7,0.5,0,1.2,0,2c0,0.4,0.2,0.8,0.4,1h0l8,8l-7.9,7.9C0.2,19.1,0,19.5,0,20c0,0.8,0.7,1.5,1.5,1.5c0.4,0,0.8-0.2,1-0.4l0,0l9-9
			h0c0.3-0.3,0.5-0.7,0.5-1.1c0,0,0,0,0,0c0,0,0,0,0,0C12,10.6,11.8,10.2,11.5,9.9z"/>
	</g>
</g>
</svg>
