<?xml version="1.0" encoding="utf-8"?>
<!-- Generator: Adobe Illustrator 18.0.0, SVG Export Plug-In . SVG Version: 6.00 Build 0)  -->
<!DOCTYPE svg PUBLIC "-//W3C//DTD SVG 1.1//EN" "http://www.w3.org/Graphics/SVG/1.1/DTD/svg11.dtd">
<svg version="1.1" id="ARROW__x2F__DOWN_copy_2_1_" xmlns="http://www.w3.org/2000/svg" xmlns:xlink="http://www.w3.org/1999/xlink"
	 x="0px" y="0px" viewBox="0 0 12 22" enable-background="new 0 0 12 22" xml:space="preserve">
<g id="ARROW__x2F__DOWN_copy_2">
	<g>
		<path fill-rule="evenodd" clip-rule="evenodd" fill="#CCCCCC" d="M3.6,11l8-8h0C11.8,2.8,12,2.4,12,2c0-0.8-0.7-1.5-1.5-1.5
			c-0.4,0-0.8,0.2-1,0.4v0l-9,9l0,0C0.2,10.2,0,10.6,0,11c0,0,0,0,0,0c0,0,0,0,0,0c0,0.4,0.2,0.8,0.5,1.1h0l9,9l0,0
			c0.3,0.3,0.6,0.4,1,0.4c0.8,0,1.5-0.7,1.5-1.5c0-0.5-0.2-0.9-0.5-1.1L3.6,11z"/>
	</g>
</g>
</svg>
