<?xml version="1.0" encoding="utf-8"?>
<!-- Generator: Adobe Illustrator 18.0.0, SVG Export Plug-In . SVG Version: 6.00 Build 0)  -->
<!DOCTYPE svg PUBLIC "-//W3C//DTD SVG 1.1//EN" "http://www.w3.org/Graphics/SVG/1.1/DTD/svg11.dtd">
<svg version="1.1" id="BULLSEYE_1_" xmlns="http://www.w3.org/2000/svg" xmlns:xlink="http://www.w3.org/1999/xlink" x="0px"
	 y="0px" viewBox="0 0 32 32" enable-background="new 0 0 32 32" xml:space="preserve">
<g id="BULLSEYE">
	<g>
		<path fill-rule="evenodd" clip-rule="evenodd" fill="#95E1D3" d="M16,13c-1.7,0-3,1.3-3,3c0,1.7,1.3,3,3,3s3-1.3,3-3
			C19,14.3,17.7,13,16,13z M16,0C7.2,0,0,7.2,0,16c0,8.8,7.2,16,16,16c8.8,0,16-7.2,16-16C32,7.2,24.8,0,16,0z M16,29
			C8.8,29,3,23.2,3,16C3,8.8,8.8,3,16,3s13,5.8,13,13C29,23.2,23.2,29,16,29z M16,6.5c-5.2,0-9.5,4.3-9.5,9.5c0,5.2,4.3,9.5,9.5,9.5
			c5.2,0,9.5-4.3,9.5-9.5C25.5,10.8,21.2,6.5,16,6.5z M16,22.5c-3.6,0-6.5-2.9-6.5-6.5c0-3.6,2.9-6.5,6.5-6.5c3.6,0,6.5,2.9,6.5,6.5
			C22.5,19.6,19.6,22.5,16,22.5z"/>
	</g>
</g>
</svg>
