<?xml version="1.0" encoding="utf-8"?>
<!-- Generator: Adobe Illustrator 18.0.0, SVG Export Plug-In . SVG Version: 6.00 Build 0)  -->
<!DOCTYPE svg PUBLIC "-//W3C//DTD SVG 1.1//EN" "http://www.w3.org/Graphics/SVG/1.1/DTD/svg11.dtd">
<svg version="1.1" id="COMPUTER__x2F__OK_1_" xmlns="http://www.w3.org/2000/svg" xmlns:xlink="http://www.w3.org/1999/xlink"
	 x="0px" y="0px" viewBox="0 0 32 28" enable-background="new 0 0 32 28" xml:space="preserve">
<g id="COMPUTER__x2F__OK">
	<g>
		<path fill-rule="evenodd" clip-rule="evenodd" fill="#95E1D3" d="M30,0H2C1.2,0,0.5,0.7,0.5,1.5v20C0.5,22.3,1.2,23,2,23h9.5v2.5
			l-2,2V28h13v-0.5l-2-2V23H30c0.8,0,1.5-0.7,1.5-1.5v-20C31.5,0.7,30.8,0,30,0z M29.5,19h-27V2h27V19z M13.9,13.6
			c0.3,0.3,0.6,0.4,1.1,0.4c0.4,0,0.8-0.2,1.1-0.4l4-4c0.3-0.3,0.4-0.6,0.4-1.1C20.5,7.7,19.8,7,19,7c-0.4,0-0.8,0.2-1.1,0.4
			L15,10.4l-0.9-0.9C13.8,9.2,13.4,9,13,9c-0.8,0-1.5,0.7-1.5,1.5c0,0.4,0.2,0.8,0.4,1.1L13.9,13.6z"/>
	</g>
</g>
</svg>
