<?xml version="1.0" encoding="utf-8"?>
<!-- Generator: Adobe Illustrator 18.0.0, SVG Export Plug-In . SVG Version: 6.00 Build 0)  -->
<!DOCTYPE svg PUBLIC "-//W3C//DTD SVG 1.1//EN" "http://www.w3.org/Graphics/SVG/1.1/DTD/svg11.dtd">
<svg version="1.1" id="dribbble_1_" xmlns="http://www.w3.org/2000/svg" xmlns:xlink="http://www.w3.org/1999/xlink" x="0px"
	 y="0px" viewBox="0 0 16 16" enable-background="new 0 0 16 16" xml:space="preserve">
<g id="dribbble">
	<g>
		<path fill-rule="evenodd" clip-rule="evenodd" fill="#95E1D3" d="M15.8,6.4c-0.1-0.5-0.3-1-0.5-1.5c-0.2-0.5-0.4-0.9-0.7-1.4
			c-0.3-0.4-0.6-0.8-1-1.2c-0.4-0.4-0.8-0.7-1.2-1c-0.4-0.3-0.9-0.5-1.4-0.7c-0.5-0.2-1-0.4-1.5-0.5C9.1,0.1,8.5,0,8,0
			C7.5,0,6.9,0.1,6.4,0.2c-0.5,0.1-1,0.3-1.5,0.5C4.4,0.8,4,1.1,3.5,1.4C3.1,1.7,2.7,2,2.3,2.4C2,2.7,1.7,3.1,1.4,3.5
			C1.1,4,0.8,4.4,0.6,4.9c-0.2,0.5-0.4,1-0.5,1.5C0.1,6.9,0,7.5,0,8c0,0.5,0.1,1.1,0.2,1.6c0.1,0.5,0.3,1,0.5,1.5
			c0.2,0.5,0.4,0.9,0.7,1.4c0.3,0.4,0.6,0.8,1,1.2c0.4,0.4,0.8,0.7,1.2,1c0.4,0.3,0.9,0.5,1.4,0.7c0.5,0.2,1,0.4,1.5,0.5
			C6.9,16,7.5,16,8,16c0.5,0,1.1-0.1,1.6-0.2c0.5-0.1,1-0.3,1.5-0.5c0.5-0.2,0.9-0.4,1.4-0.7c0.4-0.3,0.8-0.6,1.2-1
			c0.4-0.4,0.7-0.8,1-1.2c0.3-0.4,0.5-0.9,0.7-1.4c0.2-0.5,0.4-1,0.5-1.5C15.9,9.1,16,8.6,16,8C16,7.5,15.9,6.9,15.8,6.4z M8,1.2
			c1.7,0,3.3,0.6,4.5,1.7c0,0-1,1.5-3.6,2.5c-1.2-2.1-2.5-3.9-2.6-4C6.9,1.3,7.4,1.2,8,1.2z M6.4,1.4C6.4,1.4,6.4,1.4,6.4,1.4
			C6.4,1.4,6.4,1.4,6.4,1.4C6.3,1.4,6.4,1.4,6.4,1.4z M5.1,1.8C5.2,2,6.4,3.7,7.6,5.8C4.3,6.6,1.5,6.6,1.3,6.6
			C1.8,4.5,3.2,2.7,5.1,1.8z M2.9,12.6C1.8,11.4,1.2,9.8,1.2,8c0-0.1,0-0.1,0-0.2c0.1,0,3.5,0.1,7-1C8.4,7.2,8.6,7.6,8.7,8
			C8.7,8,8.6,8,8.5,8.1C4.8,9.3,2.9,12.6,2.9,12.6C2.9,12.6,2.9,12.6,2.9,12.6z M8,14.8c-1.6,0-3-0.6-4.2-1.5c0,0,0,0,0,0
			s-0.1,0-0.2-0.1c0,0,0.1,0.1,0.2,0.1c0.1-0.1,1.4-2.9,5.4-4.3c0,0,0,0,0,0c1,2.5,1.4,4.6,1.5,5.2C9.8,14.7,8.9,14.8,8,14.8z
			 M11.8,13.7c-0.1-0.4-0.4-2.4-1.3-4.9c2.2-0.4,4.1,0.3,4.3,0.3C14.4,11,13.4,12.6,11.8,13.7z M10.1,7.7c0-0.1-0.1-0.2-0.1-0.4
			C9.8,7,9.6,6.7,9.5,6.4c2.7-1.1,3.8-2.7,3.8-2.7c1,1.2,1.5,2.7,1.6,4.3C14.7,7.9,12.4,7.4,10.1,7.7z"/>
	</g>
</g>
</svg>
