<?xml version="1.0" encoding="utf-8"?>
<!-- Generator: Adobe Illustrator 18.0.0, SVG Export Plug-In . SVG Version: 6.00 Build 0)  -->
<!DOCTYPE svg PUBLIC "-//W3C//DTD SVG 1.1//EN" "http://www.w3.org/Graphics/SVG/1.1/DTD/svg11.dtd">
<svg version="1.1" id="facebook_1_" xmlns="http://www.w3.org/2000/svg" xmlns:xlink="http://www.w3.org/1999/xlink" x="0px"
	 y="0px" viewBox="0 0 8 17" enable-background="new 0 0 8 17" xml:space="preserve">
<g id="facebook">
	<g>
		<path fill-rule="evenodd" clip-rule="evenodd" fill="#95E1D3" d="M5.5,5.5c0-0.8-0.1-2,0.1-2.4C6.1,2.4,8,2.6,8,2.6S8,0.9,8,0
			C5,0,4-0.1,3,0.9C2.1,1.9,2,3.7,2,5.5H0.5V8H2c0,2.6,0,5.5,0,8c1.1,0,3.5,0,3.5,0V8c0,0,1.3,0,2,0C7.6,7.2,7.8,6.5,8,5.5H5.5z"/>
	</g>
</g>
</svg>
