<?xml version="1.0" encoding="utf-8"?>
<!-- Generator: Adobe Illustrator 18.0.0, SVG Export Plug-In . SVG Version: 6.00 Build 0)  -->
<!DOCTYPE svg PUBLIC "-//W3C//DTD SVG 1.1//EN" "http://www.w3.org/Graphics/SVG/1.1/DTD/svg11.dtd">
<svg version="1.1" id="google_plus_1_" xmlns="http://www.w3.org/2000/svg" xmlns:xlink="http://www.w3.org/1999/xlink" x="0px"
	 y="0px" viewBox="0 0 16 15" enable-background="new 0 0 16 15" xml:space="preserve">
<g id="google_plus">
	<g>
		<path fill-rule="evenodd" clip-rule="evenodd" fill="#95E1D3" d="M8.9,0.3c0,0-3.2,0-4.2,0C2.8,0.3,1,1.8,1,3.4
			c0,1.7,1.3,3.1,3.2,3.1c0.1,0,0.3,0,0.4,0C4.5,6.7,4.4,7,4.4,7.2c0,0.5,0.3,0.8,0.6,1.2c-0.2,0-0.5,0-0.7,0c-2.3,0-4.2,1.5-4.2,3
			C0,12.9,2,14,4.4,14c2.7,0,4.1-1.7,4.1-3.2c0-1.2-0.3-1.9-1.4-2.7C6.7,7.9,5.9,7.2,5.9,6.9c0-0.4,0.1-0.7,0.8-1.2
			C7.5,5.1,8,4.5,8,3.6c0-1-0.5-1.8-1.4-2.3h1.3L8.9,0.3z M7.4,10.6c0,0.1,0.1,0.3,0.1,0.4c0,1.2-0.8,2-3.1,2
			c-1.6,0-2.8-0.9-2.8-2.1c0-1.2,1.5-2.2,3.1-2.2c0.4,0,0.7,0.1,1,0.2C6.6,9.6,7.2,9.9,7.4,10.6z M4.8,6.1C3.7,6,2.7,4.9,2.5,3.5
			C2.3,2.1,3,1,4.1,1c1.1,0,2.2,1.2,2.4,2.6C6.7,5,5.9,6.1,4.8,6.1z M13.5,2.7V0.3h-1v2.4H10v1h2.5v2.4h1V3.7H16v-1H13.5z"/>
	</g>
</g>
</svg>
