<?xml version="1.0" encoding="utf-8"?>
<!-- Generator: Adobe Illustrator 18.0.0, SVG Export Plug-In . SVG Version: 6.00 Build 0)  -->
<!DOCTYPE svg PUBLIC "-//W3C//DTD SVG 1.1//EN" "http://www.w3.org/Graphics/SVG/1.1/DTD/svg11.dtd">
<svg version="1.1" id="HOME_1_" xmlns="http://www.w3.org/2000/svg" xmlns:xlink="http://www.w3.org/1999/xlink" x="0px" y="0px"
	 viewBox="0 0 32 31" enable-background="new 0 0 32 31" xml:space="preserve">
<g id="HOME">
	<g>
		<path fill-rule="evenodd" clip-rule="evenodd" fill="#95E1D3" d="M31.6,15.5L31.6,15.5L26,9.9V5.5C26,4.7,25.3,4,24.5,4
			S23,4.7,23,5.5v1.4L17.1,1l0,0c-0.2-0.3-0.6-0.4-0.9-0.5c0,0,0,0,0,0c0,0,0,0-0.1,0c0,0,0,0,0,0c0,0-0.1,0-0.1,0h0
			c-0.4,0-0.8,0.2-1.1,0.5L0.5,15.4C0.2,15.7,0,16.1,0,16.5C0,17.3,0.7,18,1.5,18c0.4,0,0.8-0.2,1.1-0.4l0,0L16,4.1v0l0,0l0,0
			l13.4,13.4l0,0c0.3,0.2,0.6,0.4,1,0.4c0.8,0,1.5-0.7,1.5-1.5C32,16.1,31.8,15.7,31.6,15.5z M3,19v10.5C3,30.3,3.7,31,4.5,31h14V19
			h6v12h3c0.8,0,1.5-0.7,1.5-1.5V19L16,6L3,19z M13.5,25h-6v-6h6V25z"/>
	</g>
</g>
</svg>
