<?xml version="1.0" encoding="utf-8"?>
<!-- Generator: Adobe Illustrator 18.0.0, SVG Export Plug-In . SVG Version: 6.00 Build 0)  -->
<!DOCTYPE svg PUBLIC "-//W3C//DTD SVG 1.1//EN" "http://www.w3.org/Graphics/SVG/1.1/DTD/svg11.dtd">
<svg version="1.1" id="IMAGE_1_" xmlns="http://www.w3.org/2000/svg" xmlns:xlink="http://www.w3.org/1999/xlink" x="0px" y="0px"
	 viewBox="0 0 32 32" enable-background="new 0 0 32 32" xml:space="preserve">
<g id="IMAGE">
	<g>
		<path fill-rule="evenodd" clip-rule="evenodd" fill="#95E1D3" d="M20,7.5h4.5V12c0,0.8,0.7,1.5,1.5,1.5c0.8,0,1.5-0.7,1.5-1.5V4.5
			H20c-0.8,0-1.5,0.7-1.5,1.5S19.2,7.5,20,7.5z M20,27.5h7.5V20c0-0.8-0.7-1.5-1.5-1.5c-0.8,0-1.5,0.7-1.5,1.5v4.5H20v0
			c-0.8,0-1.5,0.7-1.5,1.5S19.2,27.5,20,27.5z M30.5,0h-29C0.7,0,0,0.7,0,1.5v29C0,31.3,0.7,32,1.5,32h29c0.8,0,1.5-0.7,1.5-1.5v-29
			C32,0.7,31.3,0,30.5,0z M29,29H3V3h26V29z M6,13.5c0.8,0,1.5-0.7,1.5-1.5V7.5H12c0.8,0,1.5-0.7,1.5-1.5S12.8,4.5,12,4.5H4.5V12
			C4.5,12.8,5.2,13.5,6,13.5z M13.5,26c0-0.8-0.7-1.5-1.5-1.5v0H7.5V20c0-0.8-0.7-1.5-1.5-1.5c-0.8,0-1.5,0.7-1.5,1.5v7.5H12
			C12.8,27.5,13.5,26.8,13.5,26z"/>
	</g>
</g>
</svg>
