<?xml version="1.0" encoding="utf-8"?>
<!-- Generator: Adobe Illustrator 18.0.0, SVG Export Plug-In . SVG Version: 6.00 Build 0)  -->
<!DOCTYPE svg PUBLIC "-//W3C//DTD SVG 1.1//EN" "http://www.w3.org/Graphics/SVG/1.1/DTD/svg11.dtd">
<svg version="1.1" id="instagram_1_" xmlns="http://www.w3.org/2000/svg" xmlns:xlink="http://www.w3.org/1999/xlink" x="0px"
	 y="0px" viewBox="0 0 16 16" enable-background="new 0 0 16 16" xml:space="preserve">
<g id="instagram">
	<g>
		<path fill-rule="evenodd" clip-rule="evenodd" fill="#95E1D3" d="M14,0H2C0.9,0,0,0.9,0,2v12c0,1.1,0.9,2,2,2h12c1.1,0,2-0.9,2-2
			V2C16,0.9,15.1,0,14,0z M4.9,7.7C4.9,7.7,4.9,7.6,4.9,7.7c0-0.2,0-0.2,0.1-0.3c0,0,0-0.1,0-0.1C5,7.2,5,7.1,5.1,7c0,0,0-0.1,0-0.1
			c0-0.1,0.1-0.1,0.1-0.2c0,0,0,0,0,0h0C5.7,5.7,6.8,4.9,8,4.9c1.2,0,2.3,0.7,2.8,1.8h0c0,0,0,0,0,0c0,0.1,0.1,0.1,0.1,0.2
			c0,0,0,0.1,0,0.1c0,0.1,0,0.1,0.1,0.2c0,0,0,0.1,0,0.1c0,0.1,0,0.2,0,0.2c0,0,0,0.1,0,0.1c0,0.1,0,0.2,0,0.3
			c0,1.7-1.4,3.1-3.1,3.1c-1.7,0-3.1-1.4-3.1-3.1C4.9,7.9,4.9,7.8,4.9,7.7z M14.2,13.4c0,0.4-0.4,0.8-0.8,0.8H2.6
			c-0.4,0-0.8-0.4-0.8-0.8V6.7h1.5C3.2,7.1,3.1,7.6,3.1,8c0,2.7,2.2,4.9,4.9,4.9s4.9-2.2,4.9-4.9c0-0.5-0.1-0.9-0.2-1.3h1.5V13.4z
			 M14.2,4.2c0,0.4-0.4,0.8-0.8,0.8h-1.6C11.4,5,11,4.7,11,4.2V2.6c0-0.4,0.4-0.8,0.8-0.8h1.6c0.4,0,0.8,0.4,0.8,0.8V4.2z"/>
	</g>
</g>
</svg>
