<?xml version="1.0" encoding="utf-8"?>
<!-- Generator: Adobe Illustrator 18.0.0, SVG Export Plug-In . SVG Version: 6.00 Build 0)  -->
<!DOCTYPE svg PUBLIC "-//W3C//DTD SVG 1.1//EN" "http://www.w3.org/Graphics/SVG/1.1/DTD/svg11.dtd">
<svg version="1.1" id="MAGNIFYING_GLASS_1_" xmlns="http://www.w3.org/2000/svg" xmlns:xlink="http://www.w3.org/1999/xlink"
	 x="0px" y="0px" viewBox="0 0 18 18" enable-background="new 0 0 18 18" xml:space="preserve">
<g id="MAGNIFYING_GLASS">
	<g>
		<path fill-rule="evenodd" clip-rule="evenodd" fill="#FFFFFF" d="M17.3,15l-4.8-4.8c0.6-1,0.9-2.1,0.9-3.3c0-3.6-3-6.6-6.6-6.6
			c-3.6,0-6.6,3-6.6,6.6c0,3.6,3,6.6,6.6,6.6c1.2,0,2.4-0.3,3.3-0.9l4.8,4.8c0.3,0.3,0.7,0.5,1.2,0.5c0.9,0,1.6-0.7,1.6-1.6
			C17.8,15.7,17.6,15.3,17.3,15z M6.8,11.7c-2.7,0-5-2.2-5-5c0-2.7,2.2-5,5-5c2.7,0,4.9,2.2,4.9,5C11.7,9.5,9.5,11.7,6.8,11.7z"/>
	</g>
</g>
</svg>
