<?xml version="1.0" encoding="utf-8"?>
<!-- Generator: Adobe Illustrator 18.0.0, SVG Export Plug-In . SVG Version: 6.00 Build 0)  -->
<!DOCTYPE svg PUBLIC "-//W3C//DTD SVG 1.1//EN" "http://www.w3.org/Graphics/SVG/1.1/DTD/svg11.dtd">
<svg version="1.1" id="PICTURE_1_" xmlns="http://www.w3.org/2000/svg" xmlns:xlink="http://www.w3.org/1999/xlink" x="0px" y="0px"
	 viewBox="0 0 30 30" enable-background="new 0 0 30 30" xml:space="preserve">
<g id="PICTURE">
	<g>
		<path fill-rule="evenodd" clip-rule="evenodd" fill="#FFFFFF" d="M30,6c0-0.7-0.4-1.2-1-1.4V2.9c0.6-0.2,1-0.8,1-1.4
			C30,0.7,29.3,0,28.5,0c-0.7,0-1.2,0.4-1.4,1h-1.7c-0.2-0.6-0.8-1-1.4-1c-0.7,0-1.2,0.4-1.4,1h-1.7c-0.2-0.6-0.8-1-1.4-1
			c-0.7,0-1.2,0.4-1.4,1h-1.7c-0.2-0.6-0.8-1-1.4-1c-0.7,0-1.2,0.4-1.4,1h-1.7c-0.2-0.6-0.8-1-1.4-1C9.8,0,9.3,0.4,9.1,1H7.4
			C7.2,0.4,6.7,0,6,0C5.3,0,4.8,0.4,4.6,1H2.9C2.7,0.4,2.2,0,1.5,0C0.7,0,0,0.7,0,1.5c0,0.7,0.4,1.2,1,1.4v1.7C0.4,4.8,0,5.3,0,6
			c0,0.7,0.4,1.2,1,1.4v1.7c-0.6,0.2-1,0.8-1,1.4c0,0.7,0.4,1.2,1,1.4v1.7c-0.6,0.2-1,0.8-1,1.4c0,0.7,0.4,1.2,1,1.4v1.7
			c-0.6,0.2-1,0.8-1,1.4c0,0.7,0.4,1.2,1,1.4v1.7c-0.6,0.2-1,0.8-1,1.4c0,0.7,0.4,1.2,1,1.4v1.7c-0.6,0.2-1,0.8-1,1.4
			C0,29.3,0.7,30,1.5,30c0.7,0,1.2-0.4,1.4-1h1.7c0.2,0.6,0.8,1,1.4,1c0.7,0,1.2-0.4,1.4-1h1.7c0.2,0.6,0.8,1,1.4,1
			c0.7,0,1.2-0.4,1.4-1h1.7c0.2,0.6,0.8,1,1.4,1c0.7,0,1.2-0.4,1.4-1h1.7c0.2,0.6,0.8,1,1.4,1c0.7,0,1.2-0.4,1.4-1h1.7
			c0.2,0.6,0.8,1,1.4,1c0.7,0,1.2-0.4,1.4-1h1.7c0.2,0.6,0.8,1,1.4,1c0.8,0,1.5-0.7,1.5-1.5c0-0.7-0.4-1.2-1-1.4v-1.7
			c0.6-0.2,1-0.8,1-1.4c0-0.7-0.4-1.2-1-1.4v-1.7c0.6-0.2,1-0.8,1-1.4c0-0.7-0.4-1.2-1-1.4v-1.7c0.6-0.2,1-0.8,1-1.4
			c0-0.7-0.4-1.2-1-1.4v-1.7c0.6-0.2,1-0.8,1-1.4c0-0.7-0.4-1.2-1-1.4V7.4C29.6,7.2,30,6.7,30,6z M26,26H4V4h22V26z M10,13
			c1.7,0,3-1.3,3-3c0-1.7-1.3-3-3-3c-1.7,0-3,1.3-3,3C7,11.7,8.3,13,10,13z M24.5,18.5l-4.5-7L13,20l-1.5-1.5l-6,6h19V18.5z"/>
	</g>
</g>
</svg>
