<?xml version="1.0" encoding="utf-8"?>
<!-- Generator: Adobe Illustrator 18.0.0, SVG Export Plug-In . SVG Version: 6.00 Build 0)  -->
<!DOCTYPE svg PUBLIC "-//W3C//DTD SVG 1.1//EN" "http://www.w3.org/Graphics/SVG/1.1/DTD/svg11.dtd">
<svg version="1.1" id="PIN_2_1_" xmlns="http://www.w3.org/2000/svg" xmlns:xlink="http://www.w3.org/1999/xlink" x="0px" y="0px"
	 viewBox="0 0 20 26" enable-background="new 0 0 20 26" xml:space="preserve">
<g id="PIN_2">
	<g>
		<path fill-rule="evenodd" clip-rule="evenodd" fill="#F38181" d="M10,6.6C8.2,6.6,6.8,8,6.8,9.8S8.2,13,10,13s3.2-1.4,3.2-3.2
			S11.8,6.6,10,6.6z M10,0.2c-5.3,0-9.6,4.3-9.6,9.6c0,5.3,9.6,16,9.6,16s9.6-10.7,9.6-16C19.6,4.5,15.3,0.2,10,0.2z M10,16.2
			c-3.5,0-6.4-2.9-6.4-6.4c0-3.5,2.9-6.4,6.4-6.4c3.5,0,6.4,2.9,6.4,6.4C16.4,13.3,13.5,16.2,10,16.2z"/>
	</g>
</g>
</svg>
