<?xml version="1.0" encoding="utf-8"?>
<!-- Generator: Adobe Illustrator 18.0.0, SVG Export Plug-In . SVG Version: 6.00 Build 0)  -->
<!DOCTYPE svg PUBLIC "-//W3C//DTD SVG 1.1//EN" "http://www.w3.org/Graphics/SVG/1.1/DTD/svg11.dtd">
<svg version="1.1" id="pinterest_1_" xmlns="http://www.w3.org/2000/svg" xmlns:xlink="http://www.w3.org/1999/xlink" x="0px"
	 y="0px" viewBox="0 0 13 17" enable-background="new 0 0 13 17" xml:space="preserve">
<g id="pinterest">
	<g>
		<path fill-rule="evenodd" clip-rule="evenodd" fill="#95E1D3" d="M12.7,3.9c-0.2-0.8-0.6-1.5-1.1-2.1c-0.5-0.6-1.1-1-1.9-1.3
			C9,0.2,8.1,0,7,0c-0.4,0-0.7,0-1,0.1c-1,0.1-1.7,0.4-2.4,0.8C2.7,1.5,1.9,2.2,1.4,3.2C1.2,3.6,1,4.2,0.8,4.8c-0.1,0.6-0.1,1.4,0,2
			C1,7.9,1.5,8.7,2.4,9.1c0.1,0.1,0.3,0.2,0.4,0.2c0.3,0,0.3-0.4,0.4-0.6c0.1-0.2,0.2-0.5,0.1-0.7C3.1,7.8,3,7.7,2.9,7.6
			C2.7,7.2,2.5,6.6,2.5,6c0-0.9,0.2-1.5,0.5-2.1c0.6-1.1,1.6-2,3.1-2.2c0.8-0.1,1.7-0.1,2.3,0.1C9.1,2,9.6,2.4,10,2.9
			c0.4,0.5,0.6,1.1,0.7,1.9c0,0.4,0,0.9,0,1.3c-0.1,1.2-0.5,2.2-1,2.9C9.3,9.5,8.7,10,8,10c-0.4,0-0.7-0.1-1-0.3
			C6.7,9.5,6.5,9.3,6.4,8.9c-0.1-0.4,0-0.8,0.1-1.1C6.7,7,7,6.5,7.1,5.7c0.1-0.3,0.1-0.8,0-1.2C7.1,4.2,6.9,3.9,6.6,3.7
			C6.4,3.6,5.9,3.5,5.6,3.7c-0.6,0.2-1,0.8-1.2,1.5C4.3,5.5,4.2,5.9,4.3,6.3c0,0.4,0.1,0.7,0.3,1.1c0,0,0,0.2-0.1,0.3
			C4.2,9,3.9,10.2,3.6,11.5c-0.2,0.7-0.3,1.4-0.4,2.2c0,0.7-0.1,1.5,0,2.1c0,0.1,0,0.2,0.1,0.2c0.1,0,0,0.2,0.4-0.2
			c0.5-0.6,1-1.4,1.3-2.2c0.2-0.5,0.3-1,0.4-1.5c0.1-0.5,0.3-1.1,0.4-1.6C6,10.8,6.3,11,6.7,11.2c0.3,0.2,0.7,0.3,1.2,0.4
			c0.5,0,1-0.1,1.4-0.2c0.4-0.1,0.8-0.3,1.1-0.5c1.3-0.8,2.1-2.3,2.4-4C12.9,6.4,13,5.9,13,5.4C13,4.8,12.9,4.4,12.7,3.9z"/>
	</g>
</g>
</svg>
