<?xml version="1.0" encoding="utf-8"?>
<!-- Generator: Adobe Illustrator 18.0.0, SVG Export Plug-In . SVG Version: 6.00 Build 0)  -->
<!DOCTYPE svg PUBLIC "-//W3C//DTD SVG 1.1//EN" "http://www.w3.org/Graphics/SVG/1.1/DTD/svg11.dtd">
<svg version="1.1" id="SHOPPING_CART_1_" xmlns="http://www.w3.org/2000/svg" xmlns:xlink="http://www.w3.org/1999/xlink" x="0px"
	 y="0px" viewBox="0 0 18 15" enable-background="new 0 0 18 15" xml:space="preserve">
<g id="SHOPPING_CART">
	<g>
		<path fill-rule="evenodd" clip-rule="evenodd" fill="#FFFFFF" d="M15.3,9.2L15.3,9.2l2.5-5.5l0,0c0-0.1,0.1-0.2,0.1-0.3
			c0-0.5-0.4-0.8-0.8-0.8H4.8L4.3,1.1l0,0C4.2,0.8,3.9,0.6,3.5,0.6H1c-0.5,0-0.8,0.4-0.8,0.8S0.6,2.2,1,2.2h1.9l3.2,9.1H4.6
			c-0.9,0-1.7,0.7-1.7,1.7s0.7,1.6,1.7,1.6c0.9,0,1.7-0.7,1.7-1.6h7.7c0,0.9,0.7,1.6,1.7,1.6c0.9,0,1.6-0.7,1.6-1.6
			s-0.7-1.7-1.6-1.7H7.8l-0.4-1.2l7.1-0.5C14.9,9.6,15.1,9.4,15.3,9.2z M6.9,8.5L5.3,4.1h10.4L14,8L6.9,8.5z"/>
	</g>
</g>
</svg>
