<?xml version="1.0" encoding="utf-8"?>
<!-- Generator: Adobe Illustrator 18.0.0, SVG Export Plug-In . SVG Version: 6.00 Build 0)  -->
<!DOCTYPE svg PUBLIC "-//W3C//DTD SVG 1.1//EN" "http://www.w3.org/Graphics/SVG/1.1/DTD/svg11.dtd">
<svg version="1.1" id="SPEECH_BUBBLE_2_1_" xmlns="http://www.w3.org/2000/svg" xmlns:xlink="http://www.w3.org/1999/xlink" x="0px"
	 y="0px" viewBox="0 0 17 15" enable-background="new 0 0 17 15" xml:space="preserve">
<g id="SPEECH_BUBBLE_2">
	<g>
		<path fill-rule="evenodd" clip-rule="evenodd" fill="#95E1D3" d="M9.4,0.1C4.7,0.1,1,2.9,1,6.3C1,8.2,2.1,9.9,4.1,11
			c0.4,0.3,0.5,2.2-2,3.3c0,0,3.5,0.5,5.6-2.2c0.5,0.1,1.1,0.2,1.7,0.2c4.7,0,7.6-2.7,7.6-6.1C17,2.9,14.1,0.1,9.4,0.1z M5.2,7.9
			c-0.8,0-1.5-0.7-1.5-1.5s0.7-1.5,1.5-1.5s1.5,0.7,1.5,1.5S6.1,7.9,5.2,7.9z M9,7.9c-0.8,0-1.5-0.7-1.5-1.5S8.2,4.9,9,4.9
			s1.5,0.7,1.5,1.5S9.8,7.9,9,7.9z M12.7,7.9c-0.8,0-1.5-0.7-1.5-1.5s0.7-1.5,1.5-1.5c0.8,0,1.5,0.7,1.5,1.5S13.6,7.9,12.7,7.9z"/>
	</g>
</g>
</svg>
