<?xml version="1.0" encoding="utf-8"?>
<!-- Generator: Adobe Illustrator 18.0.0, SVG Export Plug-In . SVG Version: 6.00 Build 0)  -->
<!DOCTYPE svg PUBLIC "-//W3C//DTD SVG 1.1//EN" "http://www.w3.org/Graphics/SVG/1.1/DTD/svg11.dtd">
<svg version="1.1" id="SPEECH_4_1_" xmlns="http://www.w3.org/2000/svg" xmlns:xlink="http://www.w3.org/1999/xlink" x="0px"
	 y="0px" viewBox="0 0 63 61" enable-background="new 0 0 63 61" xml:space="preserve">
<g id="SPEECH_4">
	<g>
		<path fill-rule="evenodd" clip-rule="evenodd" fill="#95E1D3" d="M50.8,45.3L44.5,39H18c-3.3,0-6-2.7-6-6V12H3c-1.7,0-3,1.3-3,3
			c0,0,0,0,0,0v34c0,1.7,1.3,3,3,3h4v6c0,0.2,0,0.4,0.1,0.6c0,0.1,0.1,0.3,0.1,0.4c0,0.1,0,0.1,0.1,0.2c0,0.1,0.1,0.2,0.2,0.3
			c0,0.1,0.1,0.1,0.1,0.2c0.1,0.1,0.2,0.3,0.3,0.4c0,0,0,0,0,0C8.4,60.7,9.1,61,10,61c0,0,0,0,0,0c0.8,0,1.6-0.3,2.1-0.9l8.1-8.1H52
			c1.7,0,3-1.3,3-3v-2C53.4,47,51.9,46.4,50.8,45.3L50.8,45.3z M60,0H18c-1.7,0-3,1.3-3,3v30c0,1.7,1.3,3,3,3h27.8l7.1,7.1
			c0.5,0.5,1.3,0.9,2.1,0.9c0,0,0,0,0,0c0.8,0,1.5-0.3,2.1-0.9c0,0,0,0,0,0c0.1-0.1,0.2-0.3,0.3-0.4c0-0.1,0.1-0.1,0.1-0.2
			c0.1-0.1,0.1-0.2,0.2-0.3c0-0.1,0-0.1,0.1-0.2c0-0.1,0.1-0.3,0.1-0.4c0-0.2,0.1-0.4,0.1-0.6v-5h2c1.7,0,3-1.3,3-3V3
			C63,1.3,61.7,0,60,0z"/>
	</g>
</g>
</svg>
