<?xml version="1.0" encoding="utf-8"?>
<!-- Generator: Adobe Illustrator 18.0.0, SVG Export Plug-In . SVG Version: 6.00 Build 0)  -->
<!DOCTYPE svg PUBLIC "-//W3C//DTD SVG 1.1//EN" "http://www.w3.org/Graphics/SVG/1.1/DTD/svg11.dtd">
<svg version="1.1" id="tumblr_1_" xmlns="http://www.w3.org/2000/svg" xmlns:xlink="http://www.w3.org/1999/xlink" x="0px" y="0px"
	 viewBox="0 0 10 17" enable-background="new 0 0 10 17" xml:space="preserve">
<g id="tumblr">
	<g>
		<path fill-rule="evenodd" clip-rule="evenodd" fill="#95E1D3" d="M7.6,13.4c-0.5,0-0.9-0.1-1.2-0.3c-0.3-0.2-0.5-0.4-0.6-0.7
			c-0.1-0.3-0.1-0.8-0.1-1.7V6.6h3.7V3.7H5.7V0H3.4C3.3,0.8,3.1,1.5,2.9,2C2.6,2.6,2.3,3,1.8,3.4C1.4,3.8,0.6,4.1,0,4.3v2.3h2.2v5.6
			c0,0.7,0.1,1.3,0.2,1.7c0.2,0.4,0.4,0.7,0.8,1.1c0.4,0.3,0.9,0.6,1.4,0.8c0.6,0.2,1,0.3,1.7,0.3C7,16,7.6,16,8.2,15.8
			c0.6-0.1,1.2-0.4,1.8-0.7v-2.5C9.2,13.1,8.4,13.4,7.6,13.4z"/>
	</g>
</g>
</svg>
