<?xml version="1.0" encoding="utf-8"?>
<!-- Generator: Adobe Illustrator 18.0.0, SVG Export Plug-In . SVG Version: 6.00 Build 0)  -->
<!DOCTYPE svg PUBLIC "-//W3C//DTD SVG 1.1//EN" "http://www.w3.org/Graphics/SVG/1.1/DTD/svg11.dtd">
<svg version="1.1" id="twitter_1_" xmlns="http://www.w3.org/2000/svg" xmlns:xlink="http://www.w3.org/1999/xlink" x="0px" y="0px"
	 viewBox="0 0 16 14" enable-background="new 0 0 16 14" xml:space="preserve">
<g id="twitter">
	<g>
		<path fill-rule="evenodd" clip-rule="evenodd" fill="#95E1D3" d="M14.1,2.6L14.1,2.6c0.1-0.1,0.2-0.2,0.4-0.3
			c0.5-0.4,0.8-0.9,1.1-1.5c-0.1,0.1-0.3,0.1-0.4,0.2c-0.4,0.2-1.1,0.5-1.7,0.6c-0.6-0.6-1.3-1.1-2.6-1c-0.1,0-0.3,0-0.4,0
			C10.2,0.6,10,0.7,9.8,0.8C8.8,1.2,8.2,1.9,7.9,3c-0.1,0.4-0.2,1.1,0,1.5c-0.5,0-1-0.1-1.5-0.2c-1.7-0.4-2.8-1-4-1.9
			C2,2.1,1.7,1.8,1.4,1.5C1.3,1.4,1.2,1.3,1.1,1.1c0,0,0,0,0,0C1,1.4,0.8,1.7,0.8,2c-0.3,1.2,0.2,2.3,0.7,3c0.2,0.2,0.4,0.3,0.6,0.5
			h0c-0.1,0-0.3,0-0.4,0C1.4,5.4,1.2,5.3,1,5.2C0.9,5.2,0.7,5.1,0.6,5.1c0,1.4,0.7,2.3,1.5,2.8c0.3,0.2,0.7,0.4,1.1,0.4
			C3,8.5,2.1,8.4,1.8,8.4c0.4,1,1,1.7,2.1,2.1c0.3,0.1,0.6,0.2,1,0.2c-0.2,0.2-0.6,0.4-0.9,0.6c-0.6,0.3-1.2,0.5-2,0.7
			C1.7,12,1.4,12,1,12.1c-0.4,0.1-0.7,0-1,0c0.1,0.1,0.2,0.1,0.3,0.2c0.3,0.2,0.6,0.3,0.9,0.5c0.6,0.3,1.2,0.5,1.9,0.6
			c1.4,0.4,3.4,0.2,4.6-0.2c3.4-1.1,5.6-3.6,6.4-7.3c0.1-0.6,0.2-1.4,0.2-2.1c0.2-0.1,0.3-0.3,0.5-0.4C15.3,3,15.7,2.5,16,2.1v0
			C15.4,2.2,14.9,2.6,14.1,2.6z"/>
	</g>
</g>
</svg>
