<?xml version="1.0" encoding="utf-8"?>
<!-- Generator: Adobe Illustrator 18.0.0, SVG Export Plug-In . SVG Version: 6.00 Build 0)  -->
<!DOCTYPE svg PUBLIC "-//W3C//DTD SVG 1.1//EN" "http://www.w3.org/Graphics/SVG/1.1/DTD/svg11.dtd">
<svg version="1.1" id="USERS_1_" xmlns="http://www.w3.org/2000/svg" xmlns:xlink="http://www.w3.org/1999/xlink" x="0px" y="0px"
	 viewBox="0 0 32 24" enable-background="new 0 0 32 24" xml:space="preserve">
<g id="USERS">
	<g>
		<path fill-rule="evenodd" clip-rule="evenodd" fill="#FFFFFF" d="M20.4,17c-1.8-0.9-1.1-0.2-3.4-1.1c-2.3-0.9-2.8-1.2-2.8-1.2
			l0-2.1c0,0,0.8-0.6,1.1-2.7c0.5,0.2,0.7-0.6,0.7-1.1c0-0.5,0.3-2-0.3-1.8c0.1-1,0.2-1.9,0.2-2.4c-0.2-1.7-1.3-3.4-4.2-3.5
			C9.2,1.1,7.6,2.8,7.4,4.5c0,0.5,0,1.4,0.2,2.4C7,6.7,7.3,8.2,7.3,8.7C7.3,9.2,7.5,10,8,9.8c0.3,2,1.1,2.7,1.1,2.7l0,2.2
			c0,0-0.5,0.3-2.8,1.3C4,16.8,4.8,16.1,2.9,17C0,18.4,0,22.4,0,22.4h0c0,0,0,0,0,0c0,0.6,0.5,1.1,1.1,1.1h21.1
			c0.6,0,1.1-0.5,1.1-1.1c0,0,0,0,0,0h0C23.3,22.4,23.3,18.4,20.4,17z M32,22.5c0,0,0-3.6-2.6-4.9c-1.7-0.8-1-0.2-3.1-1
			c-2.1-0.8-2.5-1.1-2.5-1.1l0-1.9c0,0,0.8-0.6,1-2.4c0.5,0.1,0.6-0.6,0.7-1c0-0.4,0.3-1.8-0.3-1.7c0.1-0.9,0.2-1.7,0.2-2.1
			C25.1,4.7,24,3.1,21.4,3c-2.3,0.1-3.7,1.7-3.9,3.2c0,0.4,0,1.2,0.2,2.1c-0.6-0.1-0.3,1.2-0.3,1.7c0,0.4,0.2,1.2,0.7,1
			c0.2,1.8,1,2.4,1,2.4l0,2c0.7,0.2,0.8,0,2.2,0.7c3.3,1.6,3.3,6.1,3.3,6.1h0c0,0,0,0,0,0c0,0.6-0.4,1.1-1,1.2H31
			C31.5,23.5,31.9,23.1,32,22.5C31.9,22.5,31.9,22.5,32,22.5L32,22.5z"/>
	</g>
</g>
</svg>
