<?xml version="1.0" encoding="utf-8"?>
<!-- Generator: Adobe Illustrator 18.0.0, SVG Export Plug-In . SVG Version: 6.00 Build 0)  -->
<!DOCTYPE svg PUBLIC "-//W3C//DTD SVG 1.1//EN" "http://www.w3.org/Graphics/SVG/1.1/DTD/svg11.dtd">
<svg version="1.1" id="VIEW_1_" xmlns="http://www.w3.org/2000/svg" xmlns:xlink="http://www.w3.org/1999/xlink" x="0px" y="0px"
	 viewBox="0 0 20 12" enable-background="new 0 0 20 12" xml:space="preserve">
<g id="VIEW">
	<g>
		<path fill-rule="evenodd" clip-rule="evenodd" fill="#95E1D3" d="M10,3.8c-1,0-1.8,0.8-1.8,1.8c0,1,0.8,1.8,1.8,1.8
			c1,0,1.8-0.8,1.8-1.8C11.8,4.6,11,3.8,10,3.8z M19.7,5.7C19.7,5.7,19.7,5.7,19.7,5.7C19.7,5.7,19.7,5.7,19.7,5.7
			C19.7,5.7,19.7,5.7,19.7,5.7C19.7,5.6,19.7,5.6,19.7,5.7C19.7,5.6,19.7,5.6,19.7,5.7c0-0.2-0.1-0.4-0.2-0.5
			c-0.6-0.8-1.4-1.4-2.1-2c-1.6-1.3-3.5-2.4-5.5-2.9c-1.2-0.3-2.4-0.3-3.6-0.1C7.3,0.5,6.2,0.9,5.2,1.4C3.7,2.2,2.3,3.3,1.1,4.5
			C0.9,4.7,0.7,5,0.5,5.2c-0.3,0.3-0.3,0.7,0,1c0.6,0.8,1.4,1.4,2.1,2c1.6,1.3,3.5,2.4,5.5,2.9c1.2,0.3,2.4,0.3,3.6,0.1
			c1.1-0.2,2.1-0.6,3.1-1.1c1.5-0.8,2.9-1.9,4.1-3.1c0.2-0.2,0.4-0.5,0.7-0.7c0.1-0.1,0.2-0.3,0.2-0.4c0,0,0,0,0,0c0,0,0,0,0,0
			c0,0,0,0,0,0C19.7,5.8,19.7,5.8,19.7,5.7C19.7,5.8,19.7,5.8,19.7,5.7C19.7,5.8,19.7,5.8,19.7,5.7C19.7,5.7,19.7,5.7,19.7,5.7z
			 M10,9.2c-2,0-3.6-1.6-3.6-3.6c0-2,1.6-3.6,3.6-3.6c2,0,3.6,1.6,3.6,3.6C13.6,7.6,12,9.2,10,9.2z"/>
	</g>
</g>
</svg>
